PathFileType	4	(X/Y/Z)	C:/Users/opensim2020/Desktop/walking_exp_matlab/subject06_walking19_straight_03.trc	
DataRate	CameraRate	NumFrames	NumMarkers	Units	OrigDataRate	OrigDataStartFrame	OrigNumFrames	
100.00	100.00	4	49	mm	100.00	3356	358	
Frame#	Time	LFHD			RFHD			LBHD			RBHD			C7			T10			CLAV			STRN			RBAK			LSHO			LUPA			LELB			LFRM			LWRA			LWRB			LFIN			RSHO			RUPA			RELB			RFRM			RWRA			RWRB			RFIN			LASI			RASI			LPSI			RPSI			LTHI			LKNE			LTIB			LANK			LHEE			LTOE			RTHI			RKNE			RTIB			RANK			RHEE			RTOE			*39			*40			*41			*42			*43			*44			*45			*46			*47			*48			
		X1	Y1	Z1	X2	Y2	Z2	X3	Y3	Z3	X4	Y4	Z4	X5	Y5	Z5	X6	Y6	Z6	X7	Y7	Z7	X8	Y8	Z8	X9	Y9	Z9	X10	Y10	Z10	X11	Y11	Z11	X12	Y12	Z12	X13	Y13	Z13	X14	Y14	Z14	X15	Y15	Z15	X16	Y16	Z16	X17	Y17	Z17	X18	Y18	Z18	X19	Y19	Z19	X20	Y20	Z20	X21	Y21	Z21	X22	Y22	Z22	X23	Y23	Z23	X24	Y24	Z24	X25	Y25	Z25	X26	Y26	Z26	X27	Y27	Z27	X28	Y28	Z28	X29	Y29	Z29	X30	Y30	Z30	X31	Y31	Z31	X32	Y32	Z32	X33	Y33	Z33	X34	Y34	Z34	X35	Y35	Z35	X36	Y36	Z36	X37	Y37	Z37	X38	Y38	Z38	X39	Y39	Z39	X40	Y40	Z40	X41	Y41	Z41	X42	Y42	Z42	X43	Y43	Z43	X44	Y44	Z44	X45	Y45	Z45	X46	Y46	Z46	X47	Y47	Z47	X48	Y48	Z48	X49	Y49	Z49	

90	0.890	1399.13782	-538.41992	1666.49939	1530.32483	-539.08771	1655.21008	1397.31494	-670.00470	1608.73486	1526.78101	-669.39355	1602.29419	1443.89709	-670.61731	1455.42554	1446.86755	-709.08234	1127.26599	1455.82922	-562.29767	1375.54639	1447.92188	-525.83435	1198.69128	1511.98743	-752.56232	1284.08276	1290.23267	-592.58850	1410.37732	1226.20337	-564.73157	1206.72266	1221.19629	-550.26538	1093.29199	1222.83069	-472.49658	963.36938	1287.96704	-378.52753	891.07788	1246.93677	-424.48785	856.24219	1262.81116	-353.46930	802.41095	1611.32434	-623.08643	1405.71143	1690.22607	-684.40704	1210.08398	1698.27087	-684.38593	1086.69043	1711.26941	-673.41895	966.34290	1678.12073	-613.13898	828.01263	1713.26025	-670.78766	828.21259	1714.98669	-635.29944	751.48907	1342.34448	-536.99139	957.58319	1563.12305	-531.57813	976.62811	1372.73486	-692.24951	990.84772	1541.19531	-683.50507	1002.00720	1295.86902	-627.78027	641.08374	1316.61169	-645.09589	477.78659	1310.97327	-826.36212	297.28427	1341.40051	-941.98639	166.70526	1383.69678	-985.28540	180.84555	1357.91443	-856.00677	50.28975	1617.46533	-541.28204	647.20239	1586.75488	-518.61493	525.61572	1587.08630	-537.00641	259.68164	1542.32507	-542.40485	73.73355	1503.84705	-586.10046	48.63301	1518.11633	-388.42523	40.80928	1457.41162	-640.09863	1701.95398																											 
91	0.900	1400.12659	-532.36169	1667.13635	1531.33228	-532.68585	1655.92896	1398.73694	-663.88647	1609.07776	1528.22192	-662.84967	1602.78577	1445.64050	-663.47278	1455.94238	1448.67322	-702.59845	1127.91638	1457.05688	-555.68079	1376.14453	1449.04028	-519.33630	1199.21533	1514.40796	-745.64819	1284.73657	1291.61157	-586.74805	1410.70276	1227.48865	-559.36340	1206.97729	1222.35547	-544.81317	1093.59448	1223.14124	-467.93445	962.90350	1287.92651	-375.19495	889.05005	1246.10205	-421.37900	855.27216	1261.62268	-350.65332	800.60870	1612.83716	-615.40936	1406.20691	1692.37012	-675.70734	1210.31348	1699.93066	-675.92944	1086.96021	1712.66638	-664.02106	966.66254	1678.51685	-603.27527	828.80365	1714.21228	-660.56445	828.58319	1715.27441	-624.79419	752.08240	1343.15491	-530.92065	958.30627	1564.29102	-525.10333	976.58148	1373.83545	-686.21625	991.31116	1542.28857	-676.88367	1002.42126	1296.75867	-618.41748	641.10205	1317.40649	-633.17651	477.63721	1312.01440	-816.25916	299.95749	1342.07361	-934.55780	171.95720	1384.36230	-977.46082	187.16623	1358.53638	-851.55188	53.11369	1618.02380	-536.17548	647.38336	1587.26331	-514.30786	525.41669	1587.46411	-535.52588	259.61130	1542.35693	-542.23724	73.70911	1503.85095	-586.02527	48.73244	1518.17908	-388.18616	40.53366	1458.64441	-633.97424	1702.42468																											 
92	0.910	1401.17944	-526.27240	1667.71936	1532.37317	-526.29932	1656.58606	1400.10999	-657.68811	1609.42493	1529.60034	-656.37262	1603.16370	1447.24878	-657.25269	1456.59814	1450.37634	-696.34711	1128.49817	1458.11304	-549.34705	1376.54602	1450.00049	-513.01691	1199.64978	1516.67224	-738.90857	1285.34460	1292.85791	-581.03369	1411.00049	1228.68884	-554.26105	1207.12512	1223.47058	-539.67035	1093.80103	1223.16418	-464.36646	962.53210	1287.58606	-372.05957	886.94824	1245.15063	-418.27158	854.17676	1260.20886	-348.20657	798.70013	1614.30994	-607.85712	1406.63110	1694.51123	-666.96155	1210.56067	1701.96484	-666.61798	1087.11560	1714.08740	-654.46436	966.88110	1678.73230	-593.36865	829.47559	1715.23682	-650.24658	828.85468	1715.70142	-614.16760	752.54791	1343.81653	-525.04315	958.87115	1565.17346	-518.49884	976.79010	1374.84387	-680.24835	991.71692	1543.24658	-670.36108	1002.83960	1297.70874	-609.16223	641.09210	1318.34009	-621.37830	477.51538	1312.98828	-806.07184	302.48615	1342.90295	-926.67505	176.89397	1385.15039	-969.22028	192.90781	1358.74878	-845.94403	56.22116	1618.51489	-531.40674	647.33466	1587.49060	-510.42514	524.88855	1587.82751	-534.17041	259.47162	1542.36145	-542.11993	73.67415	1503.81445	-586.07501	48.83773	1518.17871	-388.11438	40.31551	1459.91089	-627.84387	1702.83179																											 
93	0.920	1402.20007	-520.22223	1668.23657	1533.40881	-519.87897	1657.08411	1401.44946	-651.59253	1609.73804	1530.96777	-649.93982	1603.52087	1448.98608	-650.95325	1457.01343	1451.93738	-690.02985	1128.92676	1459.21814	-543.05267	1376.95508	1450.88306	-506.87018	1200.05078	1518.82373	-732.19714	1285.95581	1294.08240	-575.50891	1411.27710	1229.92627	-549.23486	1207.26074	1224.56421	-534.82831	1093.99292	1223.18542	-460.73309	961.99512	1287.00439	-369.07941	884.87714	1243.96973	-415.97098	853.14600	1258.58826	-346.15012	796.79871	1615.69934	-600.42389	1406.97095	1696.53772	-658.18048	1210.69214	1703.74951	-657.64606	1087.25110	1715.53931	-644.85327	967.08478	1679.05920	-583.50519	830.08984	1716.32483	-639.82141	829.11249	1716.20264	-603.37714	753.07959	1344.56201	-519.20013	959.60571	1565.92932	-512.21307	976.77405	1375.85461	-674.38336	992.15332	1544.23645	-664.06342	1003.25732	1298.64099	-600.04791	641.04547	1319.41907	-609.61505	477.44482	1314.08447	-795.72809	304.82596	1343.93652	-918.33221	181.30014	1386.50806	-960.38751	197.67950	1358.36304	-838.69116	59.52454	1618.92798	-527.11151	646.89807	1588.46948	-506.58444	524.85907	1588.33838	-532.70496	259.34158	1542.44629	-541.96008	73.67105	1503.80896	-586.04541	48.88714	1518.26453	-387.89954	40.01931	1461.21667	-621.73315	1703.23438																											 
